<svg xmlns="http://www.w3.org/2000/svg" width="255.858" height="256.888" viewBox="0 0 255.858 256.888">
  <g id="캐릭터" transform="translate(-373.571 -371.556)">
    <g id="얼굴" transform="translate(-14.905 1.571)">
      <path id="패스_1" data-name="패스 1" d="M531,370c-.444-.2-58.458,1.1-80.822,30.591s-21.391,36.624-21.715,38.244-10.7,25.28-9.723,35.651,2.269,29.817-4.862,43.43-5.51,21.067-22.363,35.975c-4.862,9.4,19.122-2.917,20.094,0s-7.13,9.4-3.241,11.668,10.371-3.889,10.371-2.269,3.565,2.269,1.621,6.482,2.269,1.945,2.269,1.945,29.169,13.288,37.6,16.529,42.457,13.612,63.848,13.612,19.77,2.593,22.687,0c.324-.972-1.945-17.177,0-17.177s4.537.324,8.427,6.158,10.7,13.612,16.205,16.529.972-9.075,4.862-10.371,14.261,14.26,18.474,15.881,7.13,1.621,5.51-5.51-6.482-15.233-5.51-22.687,6.158-26.9,11.019-36.624,10.047-25.6,11.02-28.521A105.06,105.06,0,0,0,621.3,492.96c.648-13.612.972-20.418,0-30.79a166.171,166.171,0,0,1,0-23.335S623.165,376.033,531,370Z" fill="#090713"/>
      <ellipse id="타원_1" data-name="타원 1" cx="91" cy="69" rx="91" ry="69" transform="translate(440 370)" fill="#fcc6ba"/>
      <g id="눈_왼쪽" data-name="눈 왼쪽">
        <ellipse id="타원_4" data-name="타원 4" cx="49" cy="44" rx="49" ry="44" transform="translate(427.906 406.413) rotate(-20)" fill="#faedf1"/>
        <ellipse id="타원_3" data-name="타원 3" cx="39.5" cy="41" rx="39.5" ry="41" transform="translate(446.8 402.749) rotate(-20)" fill="#8c56df"/>
        <ellipse id="타원_5" data-name="타원 5" cx="25.011" cy="30.569" rx="25.011" ry="30.569" transform="translate(477.031 401.473) rotate(-20)"/>
        <ellipse id="타원_6" data-name="타원 6" cx="10.649" cy="14.902" rx="10.649" ry="14.902" transform="matrix(0.809, -0.588, 0.588, 0.809, 502.938, 414.172)" fill="#faedf1"/>
      </g>
      <g id="눈_오른쪽" data-name="눈 오른쪽">
        <ellipse id="타원_7" data-name="타원 7" cx="36.086" cy="37.5" rx="36.086" ry="37.5" transform="translate(547.864 419.186) rotate(-20)" fill="#faedf1"/>
        <ellipse id="타원_8" data-name="타원 8" cx="33.969" cy="33.848" rx="33.969" ry="33.848" transform="translate(550.903 418.08) rotate(-20)" fill="#8c56df"/>
        <ellipse id="타원_9" data-name="타원 9" cx="26.265" cy="26.914" rx="26.265" ry="26.914" transform="translate(567.469 412.05) rotate(-20)"/>
        <ellipse id="타원_10" data-name="타원 10" cx="10.38" cy="14.164" rx="10.38" ry="14.164" transform="translate(586.94 425.606) rotate(-48)" fill="#faedf3"/>
      </g>
      <path id="패스_15" data-name="패스 15" d="M7.453.384,92.268,0V13l-93.6-.224Z" transform="translate(449.137 391.535) rotate(3)" fill="#0a0811"/>
      <rect id="사각형_2" data-name="사각형 2" width="71.268" height="13" transform="translate(558.991 398.747) rotate(2)" fill="#0a0811"/>
      <path id="패스_12" data-name="패스 12" d="M457.925,392.377s66.012,6.52,75.025,2.877,17.452-6.712,18.6-13.041c.384-.192,6.329,9.4,10.74,11.89s11.315,8.055,12.849,8.63a100.081,100.081,0,0,0,49.1,14c.384,0-32.6-36.629-61.944-42.191s-32.027-5.178-56.191-1.918S457.925,392.377,457.925,392.377Z" fill="#0a0811"/>
      <path id="패스_13" data-name="패스 13" d="M532.438,462.632c-.227-2.933-1.7,9.322,5.107,13.635s11.007,5.9,18.156,4.2c.113,0-12.6-3.972-15.093-6.922S532.665,465.565,532.438,462.632Z"/>
    </g>
    <g id="바디" transform="translate(-14.905 1.571)">
      <g id="발_오른쪽" data-name="발 오른쪽">
        <path id="패스_5" data-name="패스 5" d="M439.483,564.587c-6.806,3.241-29.817,22.687-35.975,28.2s-19.77,20.418-9.4,29.817,17.5,2.593,38.892-13.612,39.487-44.4,39.487-44.4l-17.124-11.992Z"/>
        <path id="패스_8" data-name="패스 8" d="M413.966,598.48s-4.993,3.631-5.674,6.014a5.508,5.508,0,0,0,3.858,6.809,10.148,10.148,0,0,0,8.4-1.135c2.043-1.248,4.426-2.61,4.993-3.972S413.966,598.48,413.966,598.48Z" fill="#f8edf3"/>
        <path id="패스_9" data-name="패스 9" d="M456.092,556.3c.7.178,12.744,8.82,12.57,9.606s-8.991,10.824-10.824,12.657-7.332,9.34-9.689,11.61-10.126,9.427-10.475,10.213-.96,2.3-2.008,2.389-8.031-.818-11.61-3.786-10.649-7.856-11-10.3,17.895-14.665,19.466-15.8.96-2.444,3.142-3.142,2.968-.262,5.15-1.222S456.092,556.3,456.092,556.3Z" fill="#faedf1"/>
      </g>
      <g id="팔">
        <path id="패스_2" data-name="패스 2" d="M434.946,445.965s-16.853-5.51-24.956-3.889-20.094,6.158-21.067,17.177-.324,15.557,1.621,19.446,7.13,5.834,10.7,4.213,9.075-8.751,13.288-10.7,15.233-6.806,20.418-6.482,7.454-1.621,9.4-1.621S434.946,445.965,434.946,445.965Z" fill="#fcc6ba"/>
        <path id="패스_3" data-name="패스 3" d="M584.062,502.359s15.518,6.835,15.906,18.113-3.1,16.4-10.474,23.581-17.845,3.076-17.845,0-3.491-9.569,0-16.746,1.552-11.62,0-17.429S584.062,502.359,584.062,502.359Z" transform="translate(-3 -1.359)" fill="#fbc6ba"/>
      </g>
      <g id="몸">
        <path id="패스_4" data-name="패스 4" d="M477.212,494.211c-4.2.908-21.848,20.14-22.5,22.408s-17.826,20.418-16.205,22.363,32.086,25.6,34.355,25.6,35.5-54.053,36.8-58.914C509.667,505.348,491.17,504.084,477.212,494.211Z"/>
        <path id="패스_10" data-name="패스 10" d="M465,532.035s18.942,9.165,19.378,10.562-11,17.72-12.4,17.545-13.966-8.991-14.054-9.864S465,532.035,465,532.035Z" fill="#793dd4"/>
        <path id="패스_11" data-name="패스 11" d="M469.421,503.419c0-.425,2.552-3.917,3.223-4.118s30.082,11.281,30.283,11.952-2.417,7.655-3.895,7.319-18.465-7.99-20.547-9.468S469.421,503.419,469.421,503.419Z" fill="#793dd4"/>
      </g>
      <g id="발_왼쪽" data-name="발 왼쪽">
        <ellipse id="타원_2" data-name="타원 2" cx="21.624" cy="29" rx="21.624" ry="29" transform="translate(444.735 503.419) rotate(45)"/>
        <path id="패스_6" data-name="패스 6" d="M429.206,527.146s7.071,11.784,11.26,13.181,13.268,6.2,16.847,3.753,4.277-17.807,1.92-21.124-9.165-8.816-14.927-7.071-14.228,7.682-15.1,8.642S429.206,527.146,429.206,527.146Z" fill="#faedf1"/>
        <path id="패스_7" data-name="패스 7" d="M434.967,543.818s-4.626,2.182-3.666,6.2,1.659,6.809,5.848,6.2,9.165-1.309,10.3-5.325S434.967,543.818,434.967,543.818Z" fill="#f8ebf6"/>
      </g>
    </g>
    <path id="가릭" d="M622.688,466.9s11-39.671-14.514-67.283c-14.457-27,35.609-7.068,35.609-7.068s1.328,57.681-6.048,74.351S622.688,466.9,622.688,466.9Z" transform="translate(-14.447 1.571)" fill="#fff"/>
  </g>
</svg>
